Coordinates
version=1
nRows=19
nColumns=36
inDegrees=yes

Units are S.I. units (second, meters, Newtons, ...)
If the header above contains a line with 'inDegrees', this indicates whether rotational values are in degrees (yes) or radians (no).

endheader
time	pelvis_tilt	pelvis_list	pelvis_rotation	pelvis_tx	pelvis_ty	pelvis_tz	hip_flexion_r	hip_adduction_r	hip_rotation_r	knee_angle_r	knee_angle_r_beta	ankle_angle_r	subtalar_angle_r	mtp_angle_r	hip_flexion_l	hip_adduction_l	hip_rotation_l	knee_angle_l	knee_angle_l_beta	ankle_angle_l	subtalar_angle_l	mtp_angle_l	lumbar_extension	lumbar_bending	lumbar_rotation	arm_flex_r	arm_add_r	arm_rot_r	elbow_flex_r	pro_sup_r	arm_flex_l	arm_add_l	arm_rot_l	elbow_flex_l	pro_sup_l
      1.08000000	    -12.04833623	      1.20730736	     -0.48258442	     -0.69942937	      1.33362573	     -0.58821600	     26.36576727	      0.06809644	      3.59191257	     44.88011304	      0.78330574	    -20.63958953	    -18.46433812	     -4.99796045	     22.22213200	     -1.27515654	     -1.74924610	     49.58330385	      0.86539191	    -27.86631422	    -14.85071129	     -4.99796045	     -7.15113742	     -0.46180955	     -0.79838359	     79.46984612	    -31.06735528	     37.36234104	     90.06158101	    102.95011721	     85.69127818	    -24.50469811	     27.26480706	     62.95803223	    110.21520355
      1.09000000	    -11.86187093	      1.48763614	     -0.03832136	     -0.69040235	      1.33758928	     -0.58873062	     26.54143852	     -0.55036918	      3.37759830	     42.00372847	      0.73310336	    -20.73977695	    -18.16033282	     -5.05942800	     24.03871841	     -0.93804790	     -1.56790022	     51.14117154	      0.89258183	    -27.04742771	    -15.70812450	     -5.05942800	     -8.05242738	     -0.77491833	     -1.05154984	     79.67948007	    -32.87630812	     37.72258598	     89.97450728	    102.85176619	     86.06635206	    -25.84092403	     27.42488793	     61.54038102	    110.10649013
      1.10000000	    -11.64382391	      1.78327876	      0.42782238	     -0.68149961	      1.34064524	     -0.58937130	     26.67285650	     -1.26611611	      3.02431091	     39.13229752	      0.68298744	    -21.04751432	    -17.75097364	     -5.09723108	     25.85630311	     -0.53745724	     -1.39241686	     52.55378438	      0.91723657	    -26.11963603	    -16.37982885	     -5.09723108	     -9.07714909	     -1.03723207	     -1.30665717	     80.06311145	    -34.68443158	     38.15043410	     89.92490026	    102.74925040	     86.44850791	    -27.23692829	     27.59842034	     60.11189617	    109.99418730
      1.11000000	    -11.43673668	      2.09573838	      0.86664679	     -0.67258764	      1.34266764	     -0.58997130	     26.80641070	     -1.98579171	      2.73109924	     36.32561959	      0.63400166	    -21.66283369	    -17.35486685	     -5.13916821	     27.71878328	     -0.17138992	     -1.36056580	     53.84931484	      0.93984784	    -25.06159878	    -16.69049254	     -5.13916821	    -10.17467198	     -1.17141455	     -1.58868385	     80.93894109	    -36.50791615	     39.19863631	     89.95619881	    102.62708424	     86.81885285	    -28.90023447	     27.97404547	     58.70885183	    109.89958034
      1.12000000	    -11.21057177	      2.43166230	      1.27617807	     -0.66359270	      1.34363052	     -0.59061003	     26.91503299	     -2.70488144	      2.44818236	     33.60947457	      0.58659599	    -22.67183720	    -17.34340387	     -5.21923916	     29.56091229	      0.17049040	     -1.44694594	     55.01873805	      0.96025813	    -23.53248372	    -16.47225402	     -5.21923916	    -11.31416580	     -1.25046291	     -1.94612711	     82.31779913	    -38.29469186	     40.99534034	     89.89609380	    102.30843287	     87.17802092	    -30.78501845	     28.63468350	     57.27485369	    109.80729339
      1.13000000	    -11.02968399	      2.79586775	      1.68283603	     -0.65468372	      1.34344600	     -0.59150506	     27.12199593	     -3.51983653	      1.99437914	     31.03523039	      0.54166695	    -23.58669570	    -16.63263711	     -5.24584735	     31.42183106	      0.65791988	     -1.43452902	     56.00884123	      0.97753869	    -22.21027988	    -16.94738524	     -5.24584735	    -12.35328130	     -1.53339383	     -2.22670942	     83.06444261	    -40.03964294	     41.66523099	     89.89101423	    102.21185325	     87.48841920	    -32.17519916	     28.92754223	     55.86314924	    109.72072143
      1.14000000	    -10.68859908	      2.97966074	      2.04632025	     -0.64597251	      1.34222530	     -0.59237764	     27.20293782	     -4.12382314	      1.57685367	     28.65568081	      0.50013598	    -24.82153357	    -15.98591481	     -5.29876194	     33.17424667	      0.87933138	     -1.47430869	     57.00936107	      0.99500106	    -20.30017322	    -16.63882011	     -5.29876194	    -13.57155961	     -1.71439888	     -1.96811004	     84.35316810	    -42.75656747	     43.25790093	     90.04236669	    101.99936677	     88.53176838	    -32.83392091	     30.57059911	     53.32038383	    109.67244066
      1.15000000	    -10.58941138	      3.30036564	      2.33235315	     -0.63688815	      1.33977443	     -0.59298613	     27.57514105	     -4.85752410	      1.23887963	     26.44436510	      0.46154124	    -25.99561139	    -14.88052758	     -5.33317781	     35.01937342	      1.25460226	     -1.50495356	     57.66089114	      1.00637240	    -18.62291211	    -16.44014926	     -5.33317781	    -14.40662023	     -2.00332797	     -1.91217290	     85.24600862	    -44.74741478	     44.15291766	     90.10414570	    101.82952388	     89.05216308	    -33.86878601	     31.87444710	     51.29511408	    109.63768104
      1.16000000	    -10.37985543	      3.59721082	      2.52764854	     -0.62772287	      1.33618773	     -0.59305558	     27.88531059	     -5.45454887	      0.89154268	     24.51542766	      0.42787493	    -26.79324677	    -14.23427684	     -5.42138943	     36.71914297	      1.43947791	     -1.63712469	     58.22219451	      1.01616899	    -16.43765843	    -14.82872134	     -5.42138943	    -15.34096515	     -2.28654772	     -1.63134733	     86.79547493	    -47.02697339	     46.07575848	     90.19112438	    101.27177018	     90.27406026	    -34.88704281	     35.11207776	     48.48714678	    109.66391951
      1.17000000	    -10.28009591	      3.91152829	      2.71565433	     -0.61818011	      1.33151951	     -0.59306938	     28.23588722	     -6.06154761	      0.44114154	     22.59930560	      0.39443229	    -27.82446793	    -13.26852515	     -5.52118227	     38.30387655	      1.68166473	     -1.78629855	     58.27053724	      1.01701273	    -14.97109323	    -14.12117930	     -5.52118227	    -16.00636806	     -2.54654509	     -1.57995241	     87.98423158	    -48.61465127	     47.31711513	     90.03590277	    100.52562679	     90.90440852	    -36.20334487	     37.83899681	     46.36649868	    109.75472212
      1.18000000	    -10.16553452	      4.22538402	      2.80633177	     -0.60833694	      1.32583824	     -0.59281858	     28.55759060	     -6.60450137	     -0.04412488	     20.80269720	      0.36307556	    -29.02143721	    -12.46461537	     -5.64837045	     39.63369218	      1.83268214	     -2.07828877	     57.83535103	      1.00941730	    -13.87872019	    -13.64196809	     -5.64837045	    -16.58350183	     -2.85418356	     -1.40341205	     89.17119572	    -50.17772291	     48.60935266	     89.88879346	     99.53359975	     91.58120299	    -37.48695515	     41.07882563	     44.41841873	    109.93502549
      1.19000000	    -10.00650612	      4.50886101	      2.85755826	     -0.59812766	      1.31927045	     -0.59245265	     28.72321493	     -7.07802724	     -0.54884341	     18.95655318	      0.33085427	    -30.42522586	    -11.68989518	     -5.76021873	     40.64796447	      1.93299674	     -2.34094240	     56.87541006	      0.99266317	    -13.11715412	    -13.36115117	     -5.76021873	    -17.12045555	     -3.13716673	     -1.26278560	     90.40095009	    -51.58652482	     49.99356809	     89.78593736	     98.69391453	     92.16716364	    -38.90855625	     44.32151520	     43.08334967	    110.06800333
      1.20000000	     -9.72560949	      4.77506329	      2.78017441	     -0.58751790	      1.31194793	     -0.59194909	     28.70549650	     -7.47433845	     -1.08125215	     17.17487033	      0.29975804	    -31.79112306	    -10.88270954	     -5.82767572	     41.23326919	      1.94962634	     -2.64550536	     55.38488090	      0.96664853	    -12.64236584	    -13.20064099	     -5.82767572	    -17.73788584	     -3.36421599	     -0.98854969	     91.79554895	    -52.99212888	     51.49286523	     89.91676077	     98.20464723	     92.58741123	    -40.53371750	     47.54673110	     42.49622770	    110.27503031
      1.21000000	     -9.53807330	      5.11394186	      2.60206279	     -0.57667593	      1.30345613	     -0.59133974	     28.85683425	     -7.90507590	     -1.53541929	     15.67687578	      0.27361310	    -32.94348172	     -9.99743862	     -5.91880830	     41.62337212	      1.99635576	     -2.98323622	     53.37127724	      0.93150451	    -12.34489559	    -12.98636755	     -5.91880830	    -18.15790074	     -3.67785120	     -0.60801167	     93.40667626	    -54.38253827	     53.30835054	     90.19336276	     97.39889801	     93.14084261	    -42.23099828	     51.60225118	     41.92570575	    110.45271608
      1.22000000	     -9.25951875	      5.38049454	      2.46318886	     -0.56548090	      1.29418733	     -0.59078578	     28.85154003	     -8.28329199	     -2.03677025	     14.33414964	      0.25017811	    -33.67461747	     -9.18704466	     -6.00252172	     41.68060115	      1.98394055	     -3.28410676	     50.94701962	      0.88919324	    -12.21614216	    -12.66944488	     -6.00252172	    -18.66458659	     -3.89991587	     -0.22375605	     95.23607402	    -55.95415974	     55.31787201	     90.84311457	     96.61767388	     93.69701153	    -44.14959018	     55.63942544	     42.30363018	    110.70093995
      1.23000000	     -8.91922971	      5.67323073	      2.25638877	     -0.55390463	      1.28405312	     -0.59019003	     28.79626852	     -8.66415477	     -2.52832335	     13.16716556	      0.22981039	    -34.28061098	     -8.47097350	     -6.09213982	     41.45241965	      1.95022666	     -3.68256603	     48.19336999	      0.84113298	    -12.40491202	    -12.34480396	     -6.09213982	    -19.19186889	     -4.14503361	      0.08419244	     97.42857153	    -57.33748565	     57.68434930	     91.50517118	     95.74012050	     94.53029149	    -46.64155438	     60.52952501	     43.63934876	    110.89836217
      1.24000000	     -8.51440265	      5.95131523	      1.96652708	     -0.54197323	      1.27305801	     -0.58950300	     28.64691417	     -8.96118894	     -2.79020056	     12.09894743	      0.21116647	    -34.81655844	     -7.88596571	     -6.37952423	     40.94952981	      1.89541688	     -4.08981386	     45.18946184	      0.78870490	    -13.10692323	    -12.09967209	     -6.37952423	    -19.76212241	     -4.38681443	      0.27191119	     99.81377106	    -58.43976245	     60.13014734	     92.34806992	     92.80361890	     95.93493310	    -49.80322824	     66.64107134	     46.27874871	    109.46448621
      1.25000000	     -8.19805531	      6.15126784	      1.64191182	     -0.52971983	      1.26085326	     -0.58872988	     28.58995571	     -9.15632840	     -3.07105696	     11.16394165	      0.19484754	    -35.28006834	     -7.19329753	     -6.51913395	     40.45241295	      1.74895669	     -4.49943373	     42.13838469	      0.73545355	    -14.52593694	    -11.93506386	     -6.51913395	    -20.20909418	     -4.56018010	      0.41068285	    102.84028523	    -59.48430391	     63.34561345	     93.16376068	     92.18424633	     97.75817968	    -53.30245039	     72.63530391	     49.61684297	    109.52037972
      1.26000000	     -7.91666283	      6.30888200	      1.33734758	     -0.51723197	      1.24744279	     -0.58808760	     28.60555478	     -9.33712073	     -3.39820880	     10.45844298	      0.18253426	    -35.60539209	     -6.46379708	     -6.55892164	     39.94483733	      1.59896956	     -4.89536784	     39.15424047	      0.68337041	    -16.66180448	    -11.87044634	     -6.55892164	    -20.57495094	     -4.67489223	      0.62940869	    106.58968967	    -60.62379100	     67.17982598	     93.97496270	     92.33653583	    100.00966335	    -56.68128892	     78.42289234	     53.30081181	    110.30942823
